{"title":"The.American.PROPER.720p.BRRip.x264.Feel-Free","uid":6044783,"size":2093012444,"categoryP":"video","categoryS":"hd___movies","magnet":"?xt=urn:btih:9882992f7745a25826fe758c2ef03fa69407be12&amp;dn=The.American.PROPER.720p.BRRip.x264.Feel-Free&amp;tr=udp%3A%2F%2Ftracker.openbittorrent.com%3A80&amp;tr=udp%3A%2F%2Fopen.demonii.com%3A1337&amp;tr=udp%3A%2F%2Ftracker.coppersurfer.tk%3A6969&amp;tr=udp%3A%2F%2Fexodus.desync.com%3A6969","seeders":0,"leechers":0,"uploader":"hiest","files":-1,"time":1292512671,"description":"Genre:Drama | Thriller\nLanguage: English\nIMDB:http://www.imdb.com/title/tt1440728/\nSource:PROPER.1080p.Bluray.x264.-CBGB\n\n\n\nFormat : Matroska\nFile size : 1.94 GiB\nDuration : 1h 44mn\nOverall bit rate : 2 654 Kbps\n\n\nVideo\nFormat settings, CABAC : Yes\nFormat settings, ReFrames : 4 frames\nCodec ID : V_MPEG4/ISO/AVC\nDuration : 1h 44mn\nBit rate : 2 300 Kbps\nWidth : 1 280 pixels\nHeight : 544 pixels\nDisplay aspect ratio : 2.35:1\nFrame rate mode : Variable\nFrame rate : 23.976 fps\nColor space : YUV\nChroma subsampling : 4:2:0\nBit depth : 8 bits\nScan type : Progressive\nBits/(Pixel*Frame) : 0.138\nStream size : 1.62 GiB (84%)\nWriting library : x264\n\nAudio\nID : 2\nFormat : AC-3\nFormat/Info : Audio Coding 3\nMode extension : CM (complete main)\nCodec ID : A_AC3\nDuration : 1h 44mn\nBit rate mode : Constant\nBit rate : 384 Kbps\nChannel(s) : 6 channels\nChannel positions : Front: L C R, Side: L R, LFE\nSampling rate : 48.0 KHz\nBit depth : 16 bits\nVideo delay : -1mn 5s\nStream size : 288 MiB (14%)\nLanguage : English\n\n\n\nPlot\nAn assassin hides out in Italy for one last assignment.\n\n\n\n\n\n\n\n\n\n\n================================== &lt;a href=&quot;\nhttp://thepiratebay.se/user/hiest&quot; rel=&quot;nofollow&quot; target=&quot;_NEW&quot;&gt;\nhttp://thepiratebay.se/user/hiest&lt;/a&gt;\n==================================\n\n\n\n\n\n\n\n\n\n\n\nScreenshots:\n &lt;a href=&quot;\nhttp://rapidhdd.com/images/458932vlcsnap-2010-12-16-16h10m19s121.png&quot; rel=&quot;nofollow&quot; target=&quot;_NEW&quot;&gt;\nhttp://rapidhdd.com/images/458932vlcsnap-2010-12-16-16h10m19s121.png&lt;/a&gt;\n &lt;a href=&quot;\nhttp://www.rapidhdd.com/images/375492vlcsnap-2010-12-16-16h10m32s9.png&quot; rel=&quot;nofollow&quot; target=&quot;_NEW&quot;&gt;\nhttp://www.rapidhdd.com/images/375492vlcsnap-2010-12-16-16h10m32s9.png&lt;/a&gt;\n &lt;a href=&quot;\nhttp://www.rapidhdd.com/images/975876vlcsnap-2010-12-16-16h10m46s128.png&quot; rel=&quot;nofollow&quot; target=&quot;_NEW&quot;&gt;\nhttp://www.rapidhdd.com/images/975876vlcsnap-2010-12-16-16h10m46s128.png&lt;/a&gt;\n &lt;a href=&quot;\nhttp://www.rapidhdd.com/images/551074vlcsnap-2010-12-16-16h12m14s248.png&quot; rel=&quot;nofollow&quot; target=&quot;_NEW&quot;&gt;\nhttp://www.rapidhdd.com/images/551074vlcsnap-2010-12-16-16h12m14s248.png&lt;/a&gt;","torrent":{"xt":"urn:btih:9882992f7745a25826fe758c2ef03fa69407be12","amp;dn":"The.American.PROPER.720p.BRRip.x264.Feel-Free","amp;tr":["udp%3A%2F%2Ftracker.openbittorrent.com%3A80","udp%3A%2F%2Fopen.demonii.com%3A1337","udp%3A%2F%2Ftracker.coppersurfer.tk%3A6969","udp%3A%2F%2Fexodus.desync.com%3A6969"],"infoHash":"9882992f7745a25826fe758c2ef03fa69407be12","infoHashBuffer":{"type":"Buffer","data":[152,130,153,47,119,69,162,88,38,254,117,140,46,240,63,166,148,7,190,18]},"announce":[],"urlList":[]}}